<?xml version="1.0" encoding="UTF-8" standalone="no"?>
<!-- Created with Inkscape (http://www.inkscape.org/) -->

<svg
   width="550"
   height="550"
   viewBox="0 0 550 550"
   version="1.1"
   id="SVGRoot"
   sodipodi:docname="logo_v1.svg"
   xml:space="preserve"
   inkscape:version="1.2.1 (8a69933317, 2022-10-28, custom)"
   inkscape:export-filename="../6d095798/logo_v2.svg"
   inkscape:export-xdpi="96"
   inkscape:export-ydpi="96"
   xmlns:inkscape="http://www.inkscape.org/namespaces/inkscape"
   xmlns:sodipodi="http://sodipodi.sourceforge.net/DTD/sodipodi-0.dtd"
   xmlns="http://www.w3.org/2000/svg"
   xmlns:svg="http://www.w3.org/2000/svg"><sodipodi:namedview
     id="namedview28878"
     pagecolor="#001D49"
     bordercolor="#000000"
     borderopacity="0.25"
     inkscape:showpageshadow="false"
     inkscape:pageopacity="0.0"
     inkscape:pagecheckerboard="0"
     inkscape:deskcolor="#d1d1d1"
     inkscape:document-units="px"
     showgrid="true"
     inkscape:zoom="0.64693624"
     inkscape:cx="74.195874"
     inkscape:cy="359.38627"
     inkscape:window-width="3370"
     inkscape:window-height="1376"
     inkscape:window-x="0"
     inkscape:window-y="0"
     inkscape:window-maximized="1"
     inkscape:current-layer="layer1"
     shape-rendering="crispEdges"><inkscape:grid
       type="xygrid"
       id="grid28884"
       originx="0"
       originy="0"
       spacingx="25"
       spacingy="25"
       empspacing="1" /></sodipodi:namedview><defs
     id="defs28873" /><g
     inkscape:groupmode="layer"
     id="layer5"
     inkscape:label="Layer 2"><g
       id="g36441"
       inkscape:label="bg"><rect
         style="fill:#001D49;fill-opacity:1;stroke-width:4.17856"
         id="rect32374"
         width="550"
         height="50"
         x="0"
         y="0" /><rect
         style="fill:#001D49;fill-opacity:1;stroke-width:4.17856"
         id="rect32374-1"
         width="550"
         height="50"
         x="0"
         y="500" /><rect
         style="fill:#fd0100;fill-opacity:1;stroke-width:5.24405"
         id="rect32405"
         width="550"
         height="25"
         x="0"
         y="475" /><rect
         style="fill:#fd0100;fill-opacity:1;stroke-width:5.24404"
         id="rect32405-2"
         width="550"
         height="25"
         x="0"
         y="50" /><rect
         style="fill:#001D49;fill-opacity:1;stroke-width:3.7081"
         id="rect32710"
         width="550"
         height="25"
         x="0"
         y="75" /><rect
         style="fill:#001D49;fill-opacity:1;stroke-width:3.70809"
         id="rect32710-7"
         width="550"
         height="25"
         x="0"
         y="450" /></g><g
       id="g36433"
       inkscape:label="s"
       style="display:inline"
       transform="translate(25)"><path
         id="rect33418"
         style="stroke-width:5"
         d="m 175,125 v 25 25 25 25 25 25 25 h 25 25 25 25 v 25 25 25 h -25 -25 -25 -25 v 25 25 h 25 25 25 25 25 25 v -25 -25 -25 -25 -25 -25 -25 h -25 -25 -25 -25 v -25 -25 -25 h 25 25 25 25 v -25 -25 h -25 -25 -25 -25 -25 z" /></g><path
       id="rect33418-64-2"
       style="display:inline;stroke-width:5"
       d="m 50,225 v 25 H 25 0 v 25 h 25 v 25 h 25 v -25 h 25 25 v 25 h 25 25 25 V 275 H 150 125 V 250 H 100 75 v -25 z m 325.07812,24.9082 v 24.96875 h 24.98829 24.98828 V 249.9082 h -24.98828 z m 49.97852,0 v 24.96875 24.96875 h 24.98828 24.98828 v 24.96875 h 24.98828 V 299.8457 H 525.01172 550 V 274.87695 H 525.01172 V 249.9082 h -24.99024 v 24.96875 H 475.0332 450.04492 V 249.9082 Z" /><path
       id="rect33418-64-60"
       style="display:inline;stroke-width:5"
       d="m 75,200 h 25 v 25 H 75 Z" /><path
       id="rect33418-64-60-0"
       style="display:inline;stroke-width:5"
       d="m 100,175 h 25 v 25 h -25 z" /><path
       id="rect33418-64-60-8"
       style="display:inline;stroke-width:5"
       d="m 50,175 h 25 v 25 H 50 Z" /><path
       id="rect33418-64-0-6"
       style="display:inline;stroke-width:5"
       d="m 50,300 h 25 v 25 H 50 Z" /><path
       id="rect33418-64-0-6-8"
       style="display:inline;fill:#fd0100;stroke-width:5"
       d="m 0,125 v 25 h 25 v 25 H 50 V 150 125 H 25 Z m 125,0 v 25 25 h 25 25 v -25 -25 h -25 z m 375.02148,0.0644 v 24.96875 24.96875 h 24.99024 V 150.0332 H 550 v -24.96875 h -24.98828 z m -74.96484,49.9375 v 24.96875 24.96875 h 24.98828 24.98828 V 199.9707 175.00195 H 450.04492 Z M 75,325 v 25 25 h 25 25 v -25 -25 h -25 z m 300.07812,49.75195 v 24.96875 24.96875 h 24.98829 24.98828 V 399.7207 374.75195 h -24.98828 z m 124.94336,0 v 24.96875 24.96875 H 525.01172 550 V 399.7207 H 525.01172 V 374.75195 Z M 25,375 v 25 H 0 v 25 h 25 25 v -25 -25 z" /><path
       id="rect33418-64-0-6-57"
       style="display:inline;stroke-width:5"
       d="m 25,325 h 25 v 25 H 25 Z" /><path
       id="rect33418-64-0-6-4"
       style="display:inline;stroke-width:5"
       d="m 0,350 h 25 v 25 H 0 Z" /><path
       id="rect33418-64-60-4"
       style="display:inline;stroke-width:4.99569"
       transform="scale(-1)"
       d="m -475.03342,-349.78275 h 24.98886 v 24.96867 h -24.98886 z" /><path
       id="rect33418-64-60-0-3"
       style="display:inline;stroke-width:4.99569"
       transform="scale(-1)"
       d="m -450.04456,-374.75143 h 24.98886 v 24.96866 h -24.98886 z" /><path
       id="rect33418-64-60-8-3"
       style="display:inline;stroke-width:4.99569"
       transform="scale(-1)"
       d="m -500.02231,-374.75143 h 24.98886 v 24.96866 h -24.98886 z" /><path
       id="rect33418-64-0-6-24"
       style="display:inline;stroke-width:4.99569"
       transform="scale(-1)"
       d="m -500.02231,-249.90811 h 24.98886 v 24.96866 h -24.98886 z" /><path
       id="rect33418-64-0-6-57-2"
       style="display:inline;stroke-width:4.99569"
       transform="scale(-1)"
       d="m -525.01117,-224.93918 h 24.98886 v 24.96867 h -24.98886 z" /><path
       id="rect33418-64-0-6-4-1"
       style="display:inline;stroke-width:4.99569"
       transform="scale(-1)"
       d="m -550,-199.9705 h 24.98886 v 24.96866 H -550 Z" /></g></svg>
